<?xml version="1.0" standalone="no"?>
<!DOCTYPE svg PUBLIC "-//W3C//DTD SVG 20010904//EN"
 "http://www.w3.org/TR/2001/REC-SVG-20010904/DTD/svg10.dtd">
<svg version="1.0" xmlns="http://www.w3.org/2000/svg"
 width="200.000000pt" height="59.000000pt" viewBox="0 0 200.000000 59.000000"
 preserveAspectRatio="xMidYMid meet">

<g transform="translate(0.000000,59.000000) scale(0.100000,-0.100000)"
fill="#000000" stroke="none">
<path d="M183 450 c-88 -53 -67 -149 39 -179 78 -22 98 -33 98 -52 0 -40 -87
-43 -144 -5 -23 14 -25 14 -41 -10 -8 -13 -13 -29 -9 -35 13 -22 90 -49 142
-49 86 0 142 41 142 105 0 41 -27 69 -87 90 -26 9 -60 22 -75 27 -34 12 -42
33 -21 54 19 18 73 12 112 -13 20 -13 25 -13 33 -2 30 45 29 47 -15 68 -56 27
-131 28 -174 1z"/>
<path d="M543 451 c-48 -22 -47 -21 -32 -55 12 -24 13 -25 43 -9 45 24 114 23
132 -1 8 -11 14 -28 14 -38 0 -15 -6 -17 -43 -12 -56 8 -118 -10 -151 -42 -52
-53 -23 -152 51 -170 38 -10 104 3 135 26 22 16 28 17 28 6 0 -19 31 -36 64
-36 24 0 26 4 26 39 0 22 -4 42 -9 45 -4 3 -9 43 -10 88 -2 92 -13 121 -54
152 -40 29 -138 33 -194 7z m157 -200 c0 -36 -31 -61 -75 -61 -52 0 -74 32
-49 69 12 17 25 21 70 21 53 0 54 0 54 -29z"/>
<path d="M910 295 l0 -175 45 0 45 0 0 110 c0 105 1 112 25 136 32 32 74 29
92 -6 8 -15 13 -66 13 -133 l0 -108 43 3 42 3 5 113 c5 104 7 115 29 133 13
10 33 19 46 19 41 0 50 -25 52 -149 l3 -116 42 0 43 0 3 90 c5 137 -5 193 -38
227 -43 43 -109 38 -166 -13 -20 -19 -21 -19 -42 6 -38 44 -114 46 -172 5
l-30 -21 0 25 c0 24 -4 26 -40 26 l-40 0 0 -175z"/>
<path d="M1620 451 c-47 -25 -66 -48 -85 -101 -41 -117 43 -230 172 -230 53 0
116 30 140 67 13 20 12 22 -22 33 -33 11 -38 10 -51 -9 -23 -32 -96 -29 -130
4 -43 43 -30 50 109 53 l127 3 0 37 c-1 119 -149 201 -260 143z m125 -57 c8
-4 22 -19 31 -35 l15 -29 -86 0 c-47 0 -85 4 -85 9 0 4 9 20 21 35 21 26 65
35 104 20z"/>
</g>
</svg>
